<svg id="Group_431" data-name="Group 431" xmlns="http://www.w3.org/2000/svg" width="54.494" height="54.248" viewBox="0 0 54.494 54.248">
  <path id="Path_525" data-name="Path 525" d="M82.2,576.84s-1.246,1.175-1.264,4.614h0v3.589h-4.51v5.082h4.51v13.129h5.2V590.125h4.475l.624-5.082h-5.1v-3.589h0a2.088,2.088,0,0,1,2.282-2.134h3.045v-4.786H86.9A6.186,6.186,0,0,0,82.2,576.84Z" transform="translate(-56.789 -561.736)" fill="#c22735"/>
  <g id="Group_430" data-name="Group 430">
    <path id="Path_526" data-name="Path 526" d="M112.528,618.386c-.746.223-1.161,1.054-1.514,1.695-.322.585-.94,1.269-.941,1.952a.353.353,0,0,0,.444.334c.659-.187,1.155-.957,1.632-1.42.526-.512,1.232-1.138,1.243-1.909A.687.687,0,0,0,112.528,618.386Z" transform="translate(-66.498 -574.382)" fill="#414141"/>
    <path id="Path_527" data-name="Path 527" d="M102.834,585.6c3.231-13.05-10.252-26.245-22.52-28.568a26.632,26.632,0,0,0-19.508,3.683c-4.939,3.215-9.991,8.931-10.612,14.975a.5.5,0,0,0,.086.334c-3.89,9.984.349,22.536,8.881,28.868,8.462,6.28,22.368,8.484,31.365,1.922a.73.73,0,0,0-.743-1.256q-.49.227-.978.449a.675.675,0,0,0-.929-.265c-5.989,2.841-14.306,1.4-20.227-.707-.667-.238-1.128.829-.486,1.139a26.356,26.356,0,0,0,10.093,2.614,27.879,27.879,0,0,0,4.4-.13,20.784,20.784,0,0,1-7.023.6,29.018,29.018,0,0,1-13.668-5.119c-4.886-3.264-8.222-7.243-9.8-12.935a26.534,26.534,0,0,1,.073-15,.52.52,0,0,0,.166-.184c.265-.5.523-.988.779-1.476a23.518,23.518,0,0,0-1.268,12.233c1.275,7.746,5.64,12.867,12.068,17.07.771.5,1.544-.793.725-1.226-5.706-3.022-10.231-9.9-11.189-16.19-1.058-6.947,1.468-13.46,5.6-18.991.352-.472-.395-.987-.8-.608a19.836,19.836,0,0,0-1.883,2.034,24.639,24.639,0,0,1,3.277-4c-.29.487.174,1.228.762.85,1.5-.963,2.95-1.987,4.509-2.864,1.109-.625,2.293-1.126,3.432-1.7a1.153,1.153,0,0,0,.644.007c8.266-2.1,16.5-1.193,22.939,4.847a.458.458,0,0,0,.709-.082.516.516,0,0,0,.506.652.537.537,0,0,0,0-1.074.486.486,0,0,0-.418.21.441.441,0,0,0-.129-.366,24.765,24.765,0,0,0-7.838-5.488c8.711,3.19,15.952,10.987,16.995,19.989a23.065,23.065,0,0,0-3.608-8.168.612.612,0,0,0-1.059.612,30.5,30.5,0,0,1,3.6,13.816c.162,5.068-1.807,9.389-4.5,13.569-.274.425.359.945.709.593a.452.452,0,0,0,.535-.074c3.89-3.626,6.736-9.067,6.353-14.507A.724.724,0,0,0,102.834,585.6Z" transform="translate(-48.826 -556.546)" fill="#414141"/>
    <path id="Path_528" data-name="Path 528" d="M71.579,623.759a.7.7,0,0,0,.455.935,4.194,4.194,0,0,0,.864.239c.526.065.722-.652.409-.975a4.324,4.324,0,0,0-.733-.529A.7.7,0,0,0,71.579,623.759Z" transform="translate(-55.375 -575.815)" fill="#414141"/>
  </g>
</svg>
