<svg id="Group_436" data-name="Group 436" xmlns="http://www.w3.org/2000/svg" width="54.494" height="54.248" viewBox="0 0 54.494 54.248">
  <g id="Group_434" data-name="Group 434" transform="translate(13.159 12.796)">
    <path id="Path_533" data-name="Path 533" d="M311.25,574.532H300.231a8.845,8.845,0,0,0-8.846,8.846V594.4a8.845,8.845,0,0,0,8.846,8.844H311.25a8.844,8.844,0,0,0,8.845-8.844V583.378A8.845,8.845,0,0,0,311.25,574.532Zm6.089,18.807a7.147,7.147,0,0,1-7.147,7.147h-8.9a7.147,7.147,0,0,1-7.148-7.147v-8.9a7.149,7.149,0,0,1,7.148-7.147h8.9a7.149,7.149,0,0,1,7.147,7.147Z" transform="translate(-291.385 -574.532)" fill="#c22735"/>
    <path id="Path_534" data-name="Path 534" d="M309.036,584.15a7.562,7.562,0,1,0,7.562,7.562A7.562,7.562,0,0,0,309.036,584.15Zm0,12.111a4.55,4.55,0,1,1,4.549-4.549A4.549,4.549,0,0,1,309.036,596.261Z" transform="translate(-294.295 -577.307)" fill="#c22735"/>
    <path id="Path_535" data-name="Path 535" d="M321.215,581.28a1.923,1.923,0,1,0,1.924,1.924A1.924,1.924,0,0,0,321.215,581.28Z" transform="translate(-299.437 -576.479)" fill="#c22735"/>
  </g>
  <g id="Group_435" data-name="Group 435">
    <path id="Path_536" data-name="Path 536" d="M336.591,618.386c-.745.223-1.16,1.054-1.513,1.695-.322.585-.94,1.269-.941,1.952a.352.352,0,0,0,.443.334c.66-.187,1.155-.957,1.632-1.42.527-.512,1.232-1.138,1.244-1.909A.688.688,0,0,0,336.591,618.386Z" transform="translate(-290.561 -574.382)" fill="#414141"/>
    <path id="Path_537" data-name="Path 537" d="M326.9,585.6c3.232-13.05-10.252-26.245-22.52-28.568a26.633,26.633,0,0,0-19.509,3.683c-4.939,3.215-9.991,8.931-10.612,14.975a.5.5,0,0,0,.086.334c-3.889,9.984.349,22.536,8.881,28.868,8.462,6.28,22.369,8.484,31.365,1.922a.73.73,0,0,0-.743-1.256q-.49.227-.978.449a.674.674,0,0,0-.928-.265c-5.99,2.841-14.306,1.4-20.227-.707-.668-.238-1.128.829-.486,1.139a26.349,26.349,0,0,0,10.092,2.614,27.879,27.879,0,0,0,4.4-.13,20.778,20.778,0,0,1-7.022.6,29.02,29.02,0,0,1-13.669-5.119c-4.886-3.264-8.222-7.243-9.8-12.935a26.541,26.541,0,0,1,.072-15,.528.528,0,0,0,.167-.184c.264-.5.522-.988.778-1.476a23.51,23.51,0,0,0-1.267,12.233c1.274,7.746,5.639,12.867,12.068,17.07.771.5,1.543-.793.725-1.226-5.707-3.022-10.232-9.9-11.189-16.19-1.058-6.947,1.468-13.46,5.6-18.991.353-.472-.395-.987-.8-.608a19.914,19.914,0,0,0-1.883,2.034,24.677,24.677,0,0,1,3.277-4c-.29.487.175,1.228.762.85,1.5-.963,2.95-1.987,4.509-2.864,1.109-.625,2.293-1.126,3.432-1.7a1.153,1.153,0,0,0,.644.007c8.266-2.1,16.5-1.193,22.939,4.847a.458.458,0,0,0,.709-.082.517.517,0,0,0,.506.652.537.537,0,0,0,0-1.074.488.488,0,0,0-.418.21.44.44,0,0,0-.128-.366,24.78,24.78,0,0,0-7.838-5.488c8.711,3.19,15.952,10.987,16.995,19.989a23.067,23.067,0,0,0-3.609-8.168.612.612,0,0,0-1.059.612,30.517,30.517,0,0,1,3.6,13.816c.161,5.068-1.808,9.389-4.5,13.569-.274.425.36.945.709.593a.453.453,0,0,0,.536-.074c3.89-3.626,6.735-9.067,6.353-14.507A.721.721,0,0,0,326.9,585.6Z" transform="translate(-272.889 -556.546)" fill="#414141"/>
    <path id="Path_538" data-name="Path 538" d="M295.643,623.759a.694.694,0,0,0,.454.935,4.208,4.208,0,0,0,.864.239c.526.065.722-.652.409-.975a4.324,4.324,0,0,0-.733-.529A.7.7,0,0,0,295.643,623.759Z" transform="translate(-279.438 -575.815)" fill="#414141"/>
  </g>
</svg>
