<svg id="Group_438" data-name="Group 438" xmlns="http://www.w3.org/2000/svg" width="54.494" height="54.248" viewBox="0 0 54.494 54.248">
  <path id="Path_539" data-name="Path 539" d="M417.148,575.106c-7.673,0-13.893,5.795-13.893,12.943a12.611,12.611,0,0,0,5.177,10.079v4.935l4.731-2.612a14.843,14.843,0,0,0,3.985.542c7.673,0,13.892-5.8,13.892-12.944S424.82,575.106,417.148,575.106Zm1.38,17.43-3.537-3.8-6.9,3.8,7.594-8.112,3.624,3.8,6.817-3.8Z" transform="translate(-390.211 -561.901)" fill="#c22735"/>
  <g id="Group_437" data-name="Group 437">
    <path id="Path_540" data-name="Path 540" d="M448.623,618.386c-.746.223-1.161,1.054-1.514,1.695-.322.585-.94,1.269-.941,1.952a.353.353,0,0,0,.444.334c.659-.187,1.155-.957,1.632-1.42.526-.512,1.232-1.138,1.243-1.909A.687.687,0,0,0,448.623,618.386Z" transform="translate(-402.592 -574.382)" fill="#414141"/>
    <path id="Path_541" data-name="Path 541" d="M438.929,585.6c3.232-13.05-10.252-26.245-22.52-28.568a26.632,26.632,0,0,0-19.508,3.683c-4.939,3.215-9.991,8.931-10.612,14.975a.5.5,0,0,0,.086.334c-3.89,9.984.349,22.536,8.881,28.868,8.462,6.28,22.368,8.484,31.365,1.922a.73.73,0,0,0-.743-1.256q-.49.227-.978.449a.675.675,0,0,0-.929-.265c-5.989,2.841-14.306,1.4-20.227-.707-.667-.238-1.128.829-.486,1.14a26.366,26.366,0,0,0,10.093,2.613,27.879,27.879,0,0,0,4.4-.13,20.784,20.784,0,0,1-7.023.6,29.018,29.018,0,0,1-13.668-5.119c-4.886-3.264-8.222-7.243-9.8-12.935a26.534,26.534,0,0,1,.073-15,.52.52,0,0,0,.167-.184c.265-.5.523-.988.779-1.476a23.518,23.518,0,0,0-1.268,12.233c1.275,7.746,5.64,12.867,12.068,17.07.771.5,1.544-.793.725-1.226-5.706-3.022-10.231-9.9-11.189-16.19-1.058-6.947,1.468-13.46,5.6-18.991.352-.472-.395-.987-.8-.608a19.92,19.92,0,0,0-1.883,2.034,24.637,24.637,0,0,1,3.277-4c-.29.487.174,1.228.762.85,1.5-.963,2.95-1.987,4.509-2.864,1.109-.625,2.293-1.126,3.432-1.7a1.147,1.147,0,0,0,.644.007c8.266-2.1,16.5-1.193,22.939,4.847a.458.458,0,0,0,.709-.082.516.516,0,0,0,.506.652.537.537,0,0,0,0-1.074.486.486,0,0,0-.418.21.441.441,0,0,0-.129-.366,24.765,24.765,0,0,0-7.838-5.488c8.711,3.19,15.952,10.987,16.995,19.989a23.066,23.066,0,0,0-3.608-8.168.612.612,0,0,0-1.059.612,30.5,30.5,0,0,1,3.6,13.816c.162,5.068-1.807,9.389-4.5,13.569-.274.425.359.945.709.593a.452.452,0,0,0,.535-.074c3.89-3.626,6.736-9.067,6.353-14.506A.7.7,0,0,0,438.929,585.6Z" transform="translate(-384.921 -556.546)" fill="#414141"/>
    <path id="Path_542" data-name="Path 542" d="M407.674,623.759a.7.7,0,0,0,.455.935,4.193,4.193,0,0,0,.864.239c.526.065.722-.652.409-.975a4.324,4.324,0,0,0-.733-.529A.7.7,0,0,0,407.674,623.759Z" transform="translate(-391.47 -575.815)" fill="#414141"/>
  </g>
</svg>
