<svg id="Group_433" data-name="Group 433" xmlns="http://www.w3.org/2000/svg" width="54.494" height="54.248" viewBox="0 0 54.494 54.248">
  <path id="Path_529" data-name="Path 529" d="M206.549,579.555a11.3,11.3,0,0,1-3.573,1.367,5.626,5.626,0,0,0-9.731,3.846,5.764,5.764,0,0,0,.144,1.285,15.984,15.984,0,0,1-11.6-5.879,5.631,5.631,0,0,0,1.743,7.51,5.578,5.578,0,0,1-2.549-.705c0,.026,0,.048,0,.072a5.629,5.629,0,0,0,4.512,5.516,5.66,5.66,0,0,1-1.481.2,5.569,5.569,0,0,1-1.058-.1,5.633,5.633,0,0,0,5.255,3.909,11.28,11.28,0,0,1-6.988,2.409,11.46,11.46,0,0,1-1.341-.079,15.914,15.914,0,0,0,8.624,2.529c10.349,0,16.008-8.575,16.008-16.009,0-.243,0-.486-.017-.727a11.4,11.4,0,0,0,2.806-2.913,11.258,11.258,0,0,1-3.23.886A5.657,5.657,0,0,0,206.549,579.555Z" transform="translate(-166.348 -563.067)" fill="#c22735"/>
  <g id="Group_432" data-name="Group 432" transform="translate(0)">
    <path id="Path_530" data-name="Path 530" d="M224.559,618.386c-.745.223-1.16,1.054-1.513,1.695-.322.585-.94,1.269-.941,1.952a.353.353,0,0,0,.443.334c.66-.187,1.155-.957,1.632-1.42.527-.512,1.232-1.138,1.244-1.909A.688.688,0,0,0,224.559,618.386Z" transform="translate(-178.53 -574.382)" fill="#414141"/>
    <path id="Path_531" data-name="Path 531" d="M214.866,585.6c3.231-13.05-10.252-26.245-22.52-28.568a26.635,26.635,0,0,0-19.509,3.683c-4.939,3.215-9.991,8.931-10.612,14.975a.5.5,0,0,0,.087.334c-3.89,9.984.349,22.536,8.881,28.868,8.462,6.28,22.368,8.484,31.365,1.922a.73.73,0,0,0-.743-1.256q-.49.227-.978.449a.674.674,0,0,0-.928-.265c-5.989,2.841-14.306,1.4-20.227-.707-.667-.238-1.128.829-.486,1.139a26.352,26.352,0,0,0,10.092,2.614,27.888,27.888,0,0,0,4.4-.13,20.784,20.784,0,0,1-7.023.6A29.018,29.018,0,0,1,173,604.14c-4.886-3.264-8.222-7.243-9.8-12.935a26.534,26.534,0,0,1,.073-15,.534.534,0,0,0,.166-.184c.264-.5.522-.988.779-1.476a23.511,23.511,0,0,0-1.268,12.233c1.274,7.746,5.639,12.867,12.068,17.07.771.5,1.543-.793.725-1.226-5.706-3.022-10.232-9.9-11.189-16.19-1.059-6.947,1.468-13.46,5.6-18.991.352-.472-.395-.987-.8-.608a19.836,19.836,0,0,0-1.883,2.034,24.64,24.64,0,0,1,3.277-4c-.29.487.174,1.228.762.85,1.5-.963,2.95-1.987,4.509-2.864,1.109-.625,2.292-1.126,3.431-1.7a1.155,1.155,0,0,0,.645.007c8.266-2.1,16.5-1.193,22.939,4.847a.458.458,0,0,0,.709-.082.516.516,0,0,0,.505.652.537.537,0,0,0,0-1.074.488.488,0,0,0-.418.21.44.44,0,0,0-.128-.366,24.765,24.765,0,0,0-7.838-5.488c8.711,3.19,15.952,10.987,16.995,19.989a23.067,23.067,0,0,0-3.609-8.168.612.612,0,0,0-1.059.612,30.508,30.508,0,0,1,3.6,13.816c.161,5.068-1.808,9.389-4.5,13.569-.275.425.359.945.709.593a.452.452,0,0,0,.535-.074c3.89-3.626,6.736-9.067,6.353-14.507A.734.734,0,0,0,214.866,585.6Z" transform="translate(-160.858 -556.546)" fill="#414141"/>
    <path id="Path_532" data-name="Path 532" d="M183.611,623.759a.694.694,0,0,0,.454.935,4.214,4.214,0,0,0,.864.239c.526.065.722-.652.408-.975a4.269,4.269,0,0,0-.733-.529A.7.7,0,0,0,183.611,623.759Z" transform="translate(-167.406 -575.815)" fill="#414141"/>
  </g>
</svg>
